<?xml version="1.0" encoding="UTF-8"?>
<svg xmlns="http://www.w3.org/2000/svg" width="32" height="32" viewBox="0 0 32 32">
  <!-- Robot verde Matrix estilo favicon -->
  <rect width="32" height="32" fill="#0a0a0a"/>
  
  <!-- Antena -->
  <line x1="16" y1="3" x2="16" y2="7" stroke="#00ff44" stroke-width="2"/>
  <circle cx="16" cy="3" r="1.5" fill="#00ff44"/>
  
  <!-- Cabeza del robot -->
  <rect x="8" y="7" width="16" height="12" rx="2" fill="none" stroke="#00ff44" stroke-width="2"/>
  
  <!-- Ojos del robot -->
  <circle cx="12" cy="12" r="2" fill="#00ff44">
    <animate attributeName="opacity" values="1;0.3;1" dur="2s" repeatCount="indefinite"/>
  </circle>
  <circle cx="20" cy="12" r="2" fill="#00ff44">
    <animate attributeName="opacity" values="1;0.3;1" dur="2s" begin="0.5s" repeatCount="indefinite"/>
  </circle>
  
  <!-- Boca del robot -->
  <rect x="11" y="15" width="10" height="2" fill="#00ff44"/>
  
  <!-- Cuerpo del robot -->
  <rect x="6" y="20" width="20" height="8" rx="1" fill="none" stroke="#00ff44" stroke-width="2"/>
  
  <!-- Panel de control en el cuerpo -->
  <rect x="9" y="23" width="2" height="2" fill="#00ff44" opacity="0.8"/>
  <rect x="12" y="23" width="2" height="2" fill="#00ff44" opacity="0.6"/>
  <rect x="15" y="23" width="2" height="2" fill="#00ff44" opacity="0.8"/>
  <rect x="18" y="23" width="2" height="2" fill="#00ff44" opacity="0.6"/>
  
  <!-- Brazos del robot -->
  <rect x="3" y="21" width="2" height="6" fill="#00ff44"/>
  <rect x="27" y="21" width="2" height="6" fill="#00ff44"/>
  
  <!-- Glow effect -->
  <rect x="8" y="7" width="16" height="12" rx="2" fill="none" stroke="#00ff44" stroke-width="2" opacity="0.3">
    <animate attributeName="opacity" values="0.3;0.6;0.3" dur="3s" repeatCount="indefinite"/>
  </rect>
</svg>